# xmcd CD database file
#
# Track frame offsets:
#	187
#	113910
#	172307
#	245057
#	270062
#	291732
#
# Disc length: 4195 seconds
#
# Revision: 0
# Processed by: cddbd v1.5.1PL2 Copyright (c) Steve Scherf et al.
# Submitted via: CDex 1.60beta1
#
DISCID=5c106106
DTITLE=J.A.T.P. - J.A.T.P. in Tokyo 1953 Disc 1
DYEAR=1953
DGENRE=Jazz
TTITLE0=Tokyo Blues
TTITLE1=Cotton Tail
TTITLE2=Ballad Medley
TTITLE3=Up
TTITLE4=That Old Black Magic
TTITLE5=Tenderly
EXTD=YEAR: 1953
EXTT0=
EXTT1=
EXTT2=
EXTT3=
EXTT4=
EXTT5=
PLAYORDER=
